<?xml version="1.0" ?><!DOCTYPE svg  PUBLIC '-//W3C//DTD SVG 1.1//EN'  'http://www.w3.org/Graphics/SVG/1.1/DTD/svg11.dtd'><svg enable-background="new 0 0 100 100" height="100px" id="Layer_1" version="1.1" viewBox="0 0 100 100" width="100px" xml:space="preserve" xmlns="http://www.w3.org/2000/svg" xmlns:xlink="http://www.w3.org/1999/xlink"><g><defs><rect height="100" id="SVGID_1_" width="100"/></defs><path d="M23.604,94.296c7.581-0.33,16.789,0,25.766,0c9.267,0,18.754-0.616,26.226,0   c3.02,0.249,5.797,2.056,8.284,0.456c1.92-2.473,0.496-5.792,0.921-9.119c0.807-6.315,6.631-13.889-1.843-15.5   c-3.608,3.289-1.176,6.412-3.22,10.486c-2.475,4.933-11.342,6.639-19.784,7.293c-7.246,0.562-19.947,1.289-22.547-3.646   c-2.195-4.164-0.922-10.625-0.922-15.955c0-6.031-0.647-11.804,0.922-16.414c9.205,0.672,21.108-3.068,27.606,0.91   c4.348,2.664,1.875,7.877,6.902,9.574c3.46-0.929,1.613-5.4,1.379-9.574c-0.148-2.688-0.137-6.468,0-9.574   c0.186-4.192,1.805-9.054-2.762-9.118c-3.586,2.787-0.891,7.432-4.602,10.029c-1.187,0.832-3.763,1.183-5.519,1.37   c-6.896,0.728-17.712,0.134-23.469-0.913c-0.793-8.402-0.725-19.852,0-28.266c3.125-3.104,10.313-3.212,15.185-3.193   c8.535,0.034,21.846,0.744,24.387,5.016c1.383,2.324,0.286,7.188,2.762,7.75c4.979,1.137,2.559-7.747,2.762-11.854   c0.15-3.079,1.511-5.062,0.918-7.295c-1.611-2.201-4.012-1.098-5.521-0.911C61.779,7.784,37.999,6.759,21.303,6.759   c-1.994,0-5.477-0.994-6.901,1.368c-0.963,5.266,6.226,3.089,8.741,5.927c0.818,0.923,2.027,5,2.301,7.751   c0.728,7.307,0,18.467,0,29.18c0,11.318,0.859,22.736,0,29.635c-0.3,2.408-1.753,6.289-2.301,6.839   c-3.135,3.132-11.422-0.337-10.584,6.384C15.471,95.801,19.689,94.467,23.604,94.296"/></g></svg>